M48
; DRILL file {KiCad 7.0.5} date Sat Sep 14 15:13:58 2024
; FORMAT={-:-/ absolute / inch / decimal}
; #@! TF.CreationDate,2024-09-14T15:13:58-07:00
; #@! TF.GenerationSoftware,Kicad,Pcbnew,7.0.5
; #@! TF.FileFunction,Plated,1,2,PTH
FMAT,2
INCH
; #@! TA.AperFunction,Plated,PTH,ComponentDrill
T1C0.0315
; #@! TA.AperFunction,Plated,PTH,ComponentDrill
T2C0.0354
; #@! TA.AperFunction,Plated,PTH,ComponentDrill
T3C0.0394
; #@! TA.AperFunction,Plated,PTH,ComponentDrill
T4C0.0433
; #@! TA.AperFunction,Plated,PTH,ComponentDrill
T5C0.0472
; #@! TA.AperFunction,Plated,PTH,ComponentDrill
T6C0.0709
%
G90
G05
T1
X4.0587Y-2.515
X4.0587Y-2.635
X4.0587Y-2.755
X4.4587Y-2.515
X4.4587Y-2.635
X4.4587Y-2.755
X4.6378Y-4.0143
X4.6378Y-4.4143
X5.08Y-4.0174
X5.08Y-4.4174
X5.315Y-4.12
X5.315Y-4.32
X5.3413Y-1.8602
X5.3413Y-2.126
X5.555Y-2.455
X5.555Y-2.855
X5.7413Y-1.8602
X5.7413Y-2.126
X6.9827Y-1.8858
X6.9962Y-2.1461
X6.9962Y-2.2461
X6.9962Y-2.3461
X6.9962Y-2.4461
X6.9962Y-2.5461
X6.9962Y-2.6461
X6.9962Y-2.7461
X6.9962Y-2.8461
X7.0827Y-1.8858
X7.1827Y-1.8858
X7.2827Y-1.8858
X7.2962Y-2.1461
X7.2962Y-2.2461
X7.2962Y-2.3461
X7.2962Y-2.4461
X7.2962Y-2.5461
X7.2962Y-2.6461
X7.2962Y-2.7461
X7.2962Y-2.8461
X7.3665Y-4.0306
X7.3827Y-1.8858
X7.4537Y-2.1461
X7.4537Y-2.2445
X7.4827Y-1.8858
X7.5561Y-3.6296
X7.5561Y-4.4315
X7.5827Y-1.8858
X7.6827Y-1.8858
X7.7045Y-2.1932
X7.7045Y-2.7932
X7.7665Y-4.0306
X7.8045Y-2.1932
X7.8045Y-2.7932
X7.839Y-3.9124
X7.839Y-4.1487
X7.8701Y-1.8858
X7.9045Y-2.1932
X7.9045Y-2.7932
X7.9571Y-4.2211
X7.9571Y-4.6211
X7.9571Y-3.4409
X7.9571Y-3.8409
X7.9701Y-1.8858
X8.0045Y-2.1932
X8.0045Y-2.7932
X8.0701Y-1.8858
X8.0752Y-3.9124
X8.0752Y-4.1487
X8.1045Y-2.1932
X8.1045Y-2.7932
X8.1476Y-4.0306
X8.1701Y-1.8858
X8.2701Y-1.8858
X8.358Y-3.6296
X8.358Y-4.4315
X8.3701Y-1.8858
X8.3938Y-2.1461
X8.3938Y-2.2461
X8.3938Y-2.3461
X8.3938Y-2.4461
X8.3938Y-2.5461
X8.3938Y-2.6461
X8.3938Y-2.7461
X8.3938Y-2.8461
X8.4701Y-1.8858
X8.5476Y-4.0306
X8.5701Y-1.8858
X8.6938Y-2.1461
X8.6938Y-2.2461
X8.6938Y-2.3461
X8.6938Y-2.4461
X8.6938Y-2.5461
X8.6938Y-2.6461
X8.6938Y-2.7461
X8.6938Y-2.8461
X8.8513Y-2.1461
X8.8513Y-2.2445
T2
X3.8287Y-2.515
X3.8287Y-2.6
X3.8287Y-2.685
X3.8287Y-2.77
X5.0476Y-1.8602
X5.0492Y-2.126
X5.1476Y-1.8602
X5.1492Y-2.126
X7.109Y-4.0306
X7.209Y-4.0306
X7.3745Y-3.448
X7.3745Y-4.6131
X7.4453Y-3.5187
X7.4453Y-4.5424
X7.9571Y-3.1825
X7.9571Y-3.2825
X7.9571Y-4.7598
X7.9571Y-4.8598
X8.4689Y-3.5187
X8.4769Y-4.5504
X8.5396Y-3.448
X8.5476Y-4.6211
X8.7232Y-4.0306
X8.8232Y-4.0306
T3
X3.6661Y-2.1142
X3.7661Y-2.1142
X3.7874Y-4.122
X3.7874Y-4.2205
X3.7874Y-4.3189
X3.8661Y-2.1142
X3.9913Y-4.7933
X4.074Y-1.8543
X4.074Y-2.1142
X4.0913Y-4.7933
X4.174Y-1.8543
X4.174Y-2.1142
X4.1913Y-4.7933
X4.274Y-1.8543
X4.274Y-2.1142
X4.2913Y-4.7933
X4.374Y-1.8543
X4.374Y-2.1142
X4.5244Y-4.7874
X4.6244Y-4.7874
X4.7047Y-1.93
X4.7047Y-2.03
X4.7047Y-2.13
X4.7244Y-4.7874
X4.8346Y-4.2143
X4.8346Y-4.3143
X4.845Y-3.3054
X4.845Y-3.6046
X4.9575Y-4.7874
X5.0575Y-4.7874
X5.1575Y-4.7874
X5.3917Y-4.7874
X5.45Y-3.3004
X5.45Y-3.5996
X5.4917Y-4.7874
X5.5917Y-4.7874
X5.9055Y-1.8898
X5.9055Y-1.9898
X5.9055Y-2.0898
X5.9055Y-2.1898
X5.9055Y-2.2898
X5.9055Y-2.3898
X5.9055Y-2.4898
X5.9055Y-2.5898
X5.9055Y-2.6898
X5.9055Y-2.7898
X5.9055Y-2.8898
X5.9055Y-2.9898
X5.9055Y-3.0898
X5.9055Y-3.1898
X5.9055Y-3.2898
X5.9055Y-3.3898
X5.9055Y-3.4898
X5.9055Y-3.5898
X5.9055Y-3.6898
X5.9055Y-3.7898
X6.6449Y-1.8898
X6.6449Y-1.9898
X6.6449Y-2.0898
X6.6449Y-2.1898
X6.6449Y-2.2898
X6.6449Y-2.3898
X6.6449Y-2.4898
X6.6449Y-2.5898
X6.6449Y-2.6898
X6.6449Y-2.7898
X6.6449Y-2.8898
X6.6449Y-2.9898
X6.6449Y-3.0898
X6.6449Y-3.1898
X6.6449Y-3.2898
X6.6449Y-3.3898
X6.6449Y-3.4898
X6.6449Y-3.5898
X6.6449Y-3.6898
X6.6449Y-3.7898
T4
X3.6417Y-3.175
X3.6417Y-3.3522
X3.6447Y-3.4864
X3.6447Y-3.6636
X3.8976Y-3.175
X3.8976Y-3.3522
X3.9006Y-3.4864
X3.9006Y-3.6636
X4.0697Y-3.4864
X4.0697Y-3.6636
X4.0748Y-3.175
X4.0748Y-3.3522
X4.3256Y-3.4864
X4.3256Y-3.6636
X4.3307Y-3.175
X4.3307Y-3.3522
T5
X4.7992Y-2.5532
X4.7992Y-2.7501
X5.2913Y-2.5532
X5.2913Y-2.7501
T6
G00X4.0709Y-4.0472
M15
G01X4.0551Y-4.0472
M16
G05
G00X4.0709Y-4.3937
M15
G01X4.0551Y-4.3937
M16
G05
T0
M30
